<svg id="visual" viewBox="0 0 960 540" width="960" height="540" xmlns="http://www.w3.org/2000/svg" xmlns:xlink="http://www.w3.org/1999/xlink" version="1.1"><rect x="0" y="0" width="960" height="540" fill="#2b3531"></rect><path d="M0 191L22.8 194.8C45.7 198.7 91.3 206.3 137 202.3C182.7 198.3 228.3 182.7 274 173.3C319.7 164 365.3 161 411.2 161.8C457 162.7 503 167.3 548.8 178C594.7 188.7 640.3 205.3 686 204.3C731.7 203.3 777.3 184.7 823 179.7C868.7 174.7 914.3 183.3 937.2 187.7L960 192L960 0L937.2 0C914.3 0 868.7 0 823 0C777.3 0 731.7 0 686 0C640.3 0 594.7 0 548.8 0C503 0 457 0 411.2 0C365.3 0 319.7 0 274 0C228.3 0 182.7 0 137 0C91.3 0 45.7 0 22.8 0L0 0Z" fill="#91a88c"></path><path d="M0 163L22.8 164.3C45.7 165.7 91.3 168.3 137 171.5C182.7 174.7 228.3 178.3 274 180.2C319.7 182 365.3 182 411.2 172.3C457 162.7 503 143.3 548.8 136.3C594.7 129.3 640.3 134.7 686 138.5C731.7 142.3 777.3 144.7 823 151.8C868.7 159 914.3 171 937.2 177L960 183L960 0L937.2 0C914.3 0 868.7 0 823 0C777.3 0 731.7 0 686 0C640.3 0 594.7 0 548.8 0C503 0 457 0 411.2 0C365.3 0 319.7 0 274 0C228.3 0 182.7 0 137 0C91.3 0 45.7 0 22.8 0L0 0Z" fill="#acbda8"></path><path d="M0 141L22.8 141.7C45.7 142.3 91.3 143.7 137 134.7C182.7 125.7 228.3 106.3 274 101.3C319.7 96.3 365.3 105.7 411.2 113.5C457 121.3 503 127.7 548.8 123.7C594.7 119.7 640.3 105.3 686 103.5C731.7 101.7 777.3 112.3 823 118.2C868.7 124 914.3 125 937.2 125.5L960 126L960 0L937.2 0C914.3 0 868.7 0 823 0C777.3 0 731.7 0 686 0C640.3 0 594.7 0 548.8 0C503 0 457 0 411.2 0C365.3 0 319.7 0 274 0C228.3 0 182.7 0 137 0C91.3 0 45.7 0 22.8 0L0 0Z" fill="#c7d3c4"></path><path d="M0 57L22.8 59.5C45.7 62 91.3 67 137 70C182.7 73 228.3 74 274 74.3C319.7 74.7 365.3 74.3 411.2 77.3C457 80.3 503 86.7 548.8 90C594.7 93.3 640.3 93.7 686 87C731.7 80.3 777.3 66.7 823 66.3C868.7 66 914.3 79 937.2 85.5L960 92L960 0L937.2 0C914.3 0 868.7 0 823 0C777.3 0 731.7 0 686 0C640.3 0 594.7 0 548.8 0C503 0 457 0 411.2 0C365.3 0 319.7 0 274 0C228.3 0 182.7 0 137 0C91.3 0 45.7 0 22.8 0L0 0Z" fill="#e3e9e1"></path><path d="M0 58L22.8 53.3C45.7 48.7 91.3 39.3 137 36.2C182.7 33 228.3 36 274 36C319.7 36 365.3 33 411.2 35.2C457 37.3 503 44.7 548.8 43.8C594.7 43 640.3 34 686 34.8C731.7 35.7 777.3 46.3 823 52.2C868.7 58 914.3 59 937.2 59.5L960 60L960 0L937.2 0C914.3 0 868.7 0 823 0C777.3 0 731.7 0 686 0C640.3 0 594.7 0 548.8 0C503 0 457 0 411.2 0C365.3 0 319.7 0 274 0C228.3 0 182.7 0 137 0C91.3 0 45.7 0 22.8 0L0 0Z" fill="#ffffff"></path></svg>